<svg width="22" height="22" viewBox="0 0 22 22" fill="none" xmlns="http://www.w3.org/2000/svg">
<path d="M0.325 10.4031C0.410359 10.4671 0.507492 10.5137 0.610853 10.5401C0.714214 10.5666 0.821778 10.5725 0.927405 10.5574C1.03303 10.5423 1.13465 10.5066 1.22646 10.4522C1.31828 10.3978 1.39848 10.3259 1.4625 10.2406C1.95443 9.58465 2.59232 9.05228 3.32565 8.68562C4.05898 8.31895 4.86761 8.12806 5.6875 8.12806C6.50739 8.12806 7.31602 8.31895 8.04935 8.68562C8.78268 9.05228 9.42057 9.58465 9.9125 10.2406C10.0419 10.4128 10.2345 10.5266 10.4478 10.5568C10.6611 10.5871 10.8777 10.5314 11.05 10.402C11.1114 10.3564 11.1658 10.302 11.2115 10.2406C11.7034 9.58465 12.3413 9.05228 13.0746 8.68562C13.808 8.31895 14.6166 8.12806 15.4365 8.12806C16.2564 8.12806 17.065 8.31895 17.7983 8.68562C18.5317 9.05228 19.1696 9.58465 19.6615 10.2406C19.7909 10.413 19.9835 10.5269 20.1969 10.5572C20.4104 10.5876 20.6271 10.532 20.7995 10.4026C20.9719 10.2731 21.0858 10.0805 21.1162 9.8671C21.1466 9.65368 21.0909 9.43694 20.9615 9.26454C20.2423 8.30038 19.2832 7.54126 18.1797 7.06267C18.7847 6.51031 19.2086 5.78795 19.3957 4.99039C19.5828 4.19282 19.5244 3.35732 19.2282 2.59353C18.9319 1.82975 18.4117 1.17336 17.7358 0.710517C17.0598 0.247674 16.2598 0 15.4405 0C14.6213 0 13.8213 0.247674 13.1453 0.710517C12.4694 1.17336 11.9492 1.82975 11.6529 2.59353C11.3567 3.35732 11.2983 4.19282 11.4854 4.99039C11.6725 5.78795 12.0964 6.51031 12.7014 7.06267C11.9046 7.40722 11.1807 7.90047 10.5686 8.51603C9.95645 7.90047 9.2326 7.40722 8.43578 7.06267C9.04078 6.51031 9.46465 5.78795 9.65176 4.99039C9.83887 4.19282 9.78048 3.35732 9.48426 2.59353C9.18804 1.82975 8.66782 1.17336 7.99188 0.710517C7.31594 0.247674 6.51586 0 5.69664 0C4.87742 0 4.07734 0.247674 3.4014 0.710517C2.72546 1.17336 2.20525 1.82975 1.90902 2.59353C1.6128 3.35732 1.55441 4.19282 1.74153 4.99039C1.92864 5.78795 2.3525 6.51031 2.9575 7.06267C1.8491 7.5397 0.885321 8.29931 0.1625 9.26556C0.0984807 9.35092 0.0519008 9.44805 0.0254201 9.55141C-0.00106057 9.65477 -0.00692344 9.76234 0.00816609 9.86796C0.0232556 9.97359 0.0590022 10.0752 0.113365 10.167C0.167727 10.2588 0.239641 10.339 0.325 10.4031ZM15.4375 1.62806C15.9196 1.62806 16.3909 1.77102 16.7917 2.03885C17.1925 2.30669 17.505 2.68737 17.6895 3.13277C17.8739 3.57816 17.9222 4.06826 17.8282 4.54109C17.7341 5.01392 17.502 5.44824 17.1611 5.78913C16.8202 6.13002 16.3859 6.36217 15.913 6.45622C15.4402 6.55028 14.9501 6.50201 14.5047 6.31752C14.0593 6.13303 13.6786 5.82061 13.4108 5.41976C13.143 5.01892 13 4.54765 13 4.06556C13 3.41909 13.2568 2.79911 13.7139 2.34199C14.171 1.88487 14.791 1.62806 15.4375 1.62806ZM5.6875 1.62806C6.16959 1.62806 6.64086 1.77102 7.0417 2.03885C7.44255 2.30669 7.75497 2.68737 7.93946 3.13277C8.12395 3.57816 8.17222 4.06826 8.07817 4.54109C7.98411 5.01392 7.75196 5.44824 7.41107 5.78913C7.07018 6.13002 6.63586 6.36217 6.16303 6.45622C5.6902 6.55028 5.2001 6.50201 4.75471 6.31752C4.30931 6.13303 3.92863 5.82061 3.66079 5.41976C3.39296 5.01892 3.25 4.54765 3.25 4.06556C3.25 3.41909 3.50681 2.79911 3.96393 2.34199C4.42105 1.88487 5.04104 1.62806 5.6875 1.62806ZM18.1797 17.6252C18.7847 17.0728 19.2086 16.3504 19.3957 15.5529C19.5828 14.7553 19.5244 13.9198 19.2282 13.156C18.9319 12.3922 18.4117 11.7359 17.7358 11.273C17.0598 10.8102 16.2598 10.5625 15.4405 10.5625C14.6213 10.5625 13.8213 10.8102 13.1453 11.273C12.4694 11.7359 11.9492 12.3922 11.6529 13.156C11.3567 13.9198 11.2983 14.7553 11.4854 15.5529C11.6725 16.3504 12.0964 17.0728 12.7014 17.6252C11.9046 17.9697 11.1807 18.463 10.5686 19.0785C9.95645 18.463 9.2326 17.9697 8.43578 17.6252C9.04078 17.0728 9.46465 16.3504 9.65176 15.5529C9.83887 14.7553 9.78048 13.9198 9.48426 13.156C9.18804 12.3922 8.66782 11.7359 7.99188 11.273C7.31594 10.8102 6.51586 10.5625 5.69664 10.5625C4.87742 10.5625 4.07734 10.8102 3.4014 11.273C2.72546 11.7359 2.20525 12.3922 1.90902 13.156C1.6128 13.9198 1.55441 14.7553 1.74153 15.5529C1.92864 16.3504 2.3525 17.0728 2.9575 17.6252C1.8491 18.1022 0.885321 18.8618 0.1625 19.8281C0.0984807 19.9134 0.0519008 20.0106 0.0254201 20.1139C-0.00106057 20.2173 -0.00692344 20.3248 0.00816609 20.4305C0.0232556 20.5361 0.0590022 20.6377 0.113365 20.7295C0.167727 20.8213 0.239641 20.9015 0.325 20.9656C0.410359 21.0296 0.507492 21.0762 0.610853 21.1026C0.714214 21.1291 0.821778 21.135 0.927405 21.1199C1.03303 21.1048 1.13465 21.0691 1.22646 21.0147C1.31828 20.9603 1.39848 20.8884 1.4625 20.8031C1.95443 20.1471 2.59232 19.6148 3.32565 19.2481C4.05898 18.8815 4.86761 18.6906 5.6875 18.6906C6.50739 18.6906 7.31602 18.8815 8.04935 19.2481C8.78268 19.6148 9.42057 20.1471 9.9125 20.8031C10.0419 20.9753 10.2345 21.0891 10.4478 21.1193C10.6611 21.1496 10.8777 21.0939 11.05 20.9645C11.1114 20.9189 11.1658 20.8645 11.2115 20.8031C11.7034 20.1471 12.3413 19.6148 13.0746 19.2481C13.808 18.8815 14.6166 18.6906 15.4365 18.6906C16.2564 18.6906 17.065 18.8815 17.7983 19.2481C18.5317 19.6148 19.1696 20.1471 19.6615 20.8031C19.7909 20.9755 19.9835 21.0894 20.1969 21.1197C20.4104 21.1501 20.6271 21.0945 20.7995 20.9651C20.9719 20.8356 21.0858 20.643 21.1162 20.4296C21.1466 20.2162 21.0909 19.9994 20.9615 19.827C20.2423 18.8629 19.2832 18.1038 18.1797 17.6252ZM5.6875 12.1906C6.16959 12.1906 6.64086 12.3335 7.0417 12.6014C7.44255 12.8692 7.75497 13.2499 7.93946 13.6953C8.12395 14.1407 8.17222 14.6308 8.07817 15.1036C7.98411 15.5764 7.75196 16.0107 7.41107 16.3516C7.07018 16.6925 6.63586 16.9247 6.16303 17.0187C5.6902 17.1128 5.2001 17.0645 4.75471 16.88C4.30931 16.6955 3.92863 16.3831 3.66079 15.9823C3.39296 15.5814 3.25 15.1102 3.25 14.6281C3.25 13.9816 3.50681 13.3616 3.96393 12.9045C4.42105 12.4474 5.04104 12.1906 5.6875 12.1906ZM15.4375 12.1906C15.9196 12.1906 16.3909 12.3335 16.7917 12.6014C17.1925 12.8692 17.505 13.2499 17.6895 13.6953C17.8739 14.1407 17.9222 14.6308 17.8282 15.1036C17.7341 15.5764 17.502 16.0107 17.1611 16.3516C16.8202 16.6925 16.3859 16.9247 15.913 17.0187C15.4402 17.1128 14.9501 17.0645 14.5047 16.88C14.0593 16.6955 13.6786 16.3831 13.4108 15.9823C13.143 15.5814 13 15.1102 13 14.6281C13 13.9816 13.2568 13.3616 13.7139 12.9045C14.171 12.4474 14.791 12.1906 15.4375 12.1906Z" fill="#1C1C1C"/>
</svg>
