<svg width="26" height="26" viewBox="0 0 26 26" fill="none" xmlns="http://www.w3.org/2000/svg">
<path d="M13 0C10.4288 0 7.91543 0.762437 5.77759 2.1909C3.63975 3.61935 1.97351 5.64968 0.989572 8.02512C0.0056327 10.4006 -0.251811 13.0144 0.249797 15.5362C0.751405 18.0579 1.98953 20.3743 3.80762 22.1924C5.6257 24.0105 7.94208 25.2486 10.4638 25.7502C12.9856 26.2518 15.5995 25.9944 17.9749 25.0104C20.3503 24.0265 22.3807 22.3603 23.8091 20.2224C25.2376 18.0846 26 15.5712 26 13C25.9964 9.5533 24.6256 6.24882 22.1884 3.81163C19.7512 1.37445 16.4467 0.00363977 13 0ZM13 24C10.8244 24 8.69767 23.3549 6.88873 22.1462C5.07979 20.9375 3.66989 19.2195 2.83733 17.2095C2.00477 15.1995 1.78693 12.9878 2.21137 10.854C2.63581 8.72022 3.68345 6.7602 5.22183 5.22183C6.76021 3.68345 8.72022 2.6358 10.854 2.21136C12.9878 1.78692 15.1995 2.00476 17.2095 2.83733C19.2195 3.66989 20.9375 5.07979 22.1462 6.88873C23.3549 8.69767 24 10.8244 24 13C23.9967 15.9164 22.8367 18.7123 20.7745 20.7745C18.7123 22.8367 15.9164 23.9967 13 24ZM18.5525 6.105L10.5525 10.105C10.3591 10.2022 10.2022 10.3591 10.105 10.5525L6.10501 18.5525C6.02869 18.705 5.99264 18.8745 6.0003 19.0449C6.00795 19.2153 6.05905 19.3808 6.14874 19.5259C6.23843 19.671 6.36373 19.7907 6.51272 19.8736C6.66172 19.9566 6.82946 20.0001 7.00001 20C7.15525 19.9998 7.30836 19.9638 7.44751 19.895L15.4475 15.895C15.6409 15.7978 15.7979 15.6409 15.895 15.4475L19.895 7.4475C19.9894 7.25966 20.0222 7.04686 19.9887 6.83933C19.9552 6.6318 19.8572 6.4401 19.7085 6.29146C19.5599 6.14282 19.3682 6.0448 19.1607 6.01132C18.9531 5.97785 18.7403 6.01063 18.5525 6.105ZM14.25 14.25L9.23626 16.7638L11.75 11.75L16.7688 9.24125L14.25 14.25Z" fill="#262626"/>
</svg>
