<svg width="106" height="28" viewBox="0 0 106 28" fill="none" xmlns="http://www.w3.org/2000/svg">
<g clip-path="url(#clip0_8013_287)">
<g clip-path="url(#clip1_8013_287)">
<path d="M28.82 12.7153C28.577 13.4661 28.0531 14.1658 27.2484 14.8131C27.1643 14.8808 27.0776 14.9476 26.9879 15.014C26.4471 15.4141 25.7964 15.7931 25.0352 16.1524L22.7528 17.2293L22.4819 17.3571L15.9683 20.43L15.666 20.5727L15.5985 20.6045L4.62283 10.5143L4.41162 10.3201V16.3879L4.62283 16.5821L15.5985 26.6722L15.666 26.6404L22.4819 23.4249L25.0352 22.2201C25.7964 21.8608 26.4471 21.4818 26.9879 21.0817C27.9412 20.3784 28.5518 19.6119 28.82 18.783C28.9185 18.4789 28.9677 18.1757 28.9677 17.8729V11.8052C28.9677 12.108 28.9185 12.4112 28.82 12.7153Z" fill="#800020"/>
<path d="M27.3875 8.8705C26.338 7.90526 25.1221 7.28987 23.7429 7.02524C22.6424 6.81488 21.4953 6.83192 20.3008 7.07772C20.809 6.48341 21.0633 5.84336 21.0642 5.15711C21.0638 4.93508 21.0359 4.7153 20.9806 4.49732C20.8987 4.17258 20.7554 3.85143 20.5512 3.53477C20.3335 3.19702 20.046 2.86332 19.6885 2.53499C18.4456 1.39258 16.8957 0.756117 15.0396 0.623352C13.1836 0.49238 11.2034 0.921625 9.10082 1.91378L5.66523 3.53477L3.62539 4.49732L-0.0410156 6.2273V22.9329L2.18522 20.9373L4.41145 22.9329V10.3206L4.62266 10.5148L15.5984 20.605L15.6659 20.5731L15.9681 20.4305L22.4817 17.3576L22.7526 17.2298L25.035 16.1529C25.7963 15.7936 26.4469 15.4146 26.9878 15.0145C27.0775 14.9481 27.1641 14.8813 27.2482 14.8135C28.053 14.1663 28.5769 13.4666 28.8199 12.7158C28.9183 12.4117 28.9675 12.1084 28.9675 11.8057C28.9675 10.8176 28.441 9.83888 27.3875 8.8705ZM9.35558 8.28427L9.05161 8.00483L7.68504 6.7485L11.1877 5.09566C11.8923 4.7633 12.5277 4.5637 13.0934 4.49732C13.2859 4.47444 13.4701 4.46727 13.6465 4.47534C13.731 4.47893 13.8141 4.48655 13.8965 4.49732C14.4926 4.57536 15.0305 4.83551 15.5113 5.27731C16.0582 5.78012 16.2468 6.25735 16.0756 6.70858C16.0621 6.74401 16.0465 6.77944 16.0282 6.81488C15.9642 6.94002 15.8701 7.06471 15.7464 7.18895C15.4594 7.47781 15.0117 7.76577 14.4038 8.05238L10.9016 9.70521L9.35558 8.28427ZM23.0487 12.3367C22.9721 12.5471 22.8205 12.7539 22.595 12.9571C22.4399 13.0966 22.2505 13.2338 22.0262 13.3693C21.8407 13.481 21.6317 13.5922 21.3987 13.7021L17.3351 15.6195L15.4782 13.912L15.219 13.6738L13.8969 12.4583L15.4616 11.72L15.7473 11.5855L17.9605 10.5413C18.8872 10.104 19.7107 9.89988 20.4314 9.93038C20.4515 9.93127 20.4715 9.93217 20.492 9.93352C20.5812 9.93935 20.6692 9.94877 20.7567 9.96267C21.3521 10.0569 21.9078 10.3403 22.4212 10.8122C23.0135 11.3567 23.2221 11.8649 23.0492 12.3367H23.0487Z" fill="#F1E0C6"/>
</g>
<path d="M38.2473 6.84986H40.6283V19.8608H45.5366V21.8459H38.2473V6.84986Z" fill="#1C1C1C"/>
<path d="M47.5278 21.8459V9.95695H49.9088V21.8459H47.5278ZM48.7392 8.38182C47.8828 8.38182 47.2145 7.69136 47.2145 6.8067C47.2145 5.92204 47.8828 5.23158 48.7392 5.23158C49.5746 5.23158 50.243 5.92204 50.243 6.8067C50.243 7.69136 49.5746 8.38182 48.7392 8.38182Z" fill="#1C1C1C"/>
<path d="M55.4159 11.7263C56.1678 10.6474 57.6089 9.76275 59.426 9.76275C62.4754 9.76275 64.8355 12.1794 64.8355 15.8475C64.8355 19.5156 62.4545 22.0401 59.426 22.0401C57.5254 22.0401 56.1678 21.1554 55.4159 20.1197V21.8459H53.0349V5.87889H55.4159V11.7263ZM62.4127 15.8475C62.4127 13.2798 60.7001 11.8989 58.9039 11.8989C57.1285 11.8989 55.4159 13.3445 55.4159 15.8906C55.4159 18.4583 57.1285 19.904 58.9039 19.904C60.7001 19.904 62.4127 18.4151 62.4127 15.8475Z" fill="#1C1C1C"/>
<path d="M66.3964 15.8475C66.3964 12.1794 68.7983 9.76275 71.8268 9.76275C73.7692 9.76275 75.106 10.7121 75.8161 11.6831V9.95695H78.218V21.8459H75.8161V20.0766C75.0851 21.0907 73.7066 22.0401 71.7851 22.0401C68.7983 22.0401 66.3964 19.5156 66.3964 15.8475ZM75.8161 15.8906C75.8161 13.3445 74.1243 11.8989 72.3281 11.8989C70.5528 11.8989 68.8401 13.2798 68.8401 15.8475C68.8401 18.4151 70.5528 19.904 72.3281 19.904C74.1243 19.904 75.8161 18.4583 75.8161 15.8906Z" fill="#1C1C1C"/>
<path d="M83.7264 11.7263C84.4783 10.6474 85.9194 9.76275 87.7365 9.76275C90.7859 9.76275 93.146 12.1794 93.146 15.8475C93.146 19.5156 90.765 22.0401 87.7365 22.0401C85.8359 22.0401 84.4783 21.1554 83.7264 20.1197V21.8459H81.3454V5.87889H83.7264V11.7263ZM90.7232 15.8475C90.7232 13.2798 89.0106 11.8989 87.2144 11.8989C85.439 11.8989 83.7264 13.3445 83.7264 15.8906C83.7264 18.4583 85.439 19.904 87.2144 19.904C89.0106 19.904 90.7232 18.4151 90.7232 15.8475Z" fill="#1C1C1C"/>
<path d="M105.923 9.95695V21.8459H103.542V20.4218C102.79 21.4359 101.495 22.0185 100.137 22.0185C97.443 22.0185 95.3962 20.2708 95.3962 16.9479V9.95695H97.7563V16.5811C97.7563 18.7604 98.9051 19.8824 100.639 19.8824C102.393 19.8824 103.542 18.7604 103.542 16.5811V9.95695H105.923Z" fill="#1C1C1C"/>
</g>
<defs>
<clipPath id="clip0_8013_287">
<rect width="105.881" height="27.271" fill="white"/>
</clipPath>
<clipPath id="clip1_8013_287">
<rect width="29.0085" height="26.0722" fill="white" transform="translate(-0.0419922 0.6)"/>
</clipPath>
</defs>
</svg>
