<svg width="25" height="18" viewBox="0 0 25 18" fill="none" xmlns="http://www.w3.org/2000/svg">
<path d="M17.875 5.03445V4.46875C17.875 1.92156 14.0329 0 8.9375 0C3.84211 0 0 1.92156 0 4.46875V8.53125C0 10.6529 2.66602 12.3388 6.5 12.8436V13.4063C6.5 15.9534 10.3421 17.875 15.4375 17.875C20.5329 17.875 24.375 15.9534 24.375 13.4063V9.34375C24.375 7.24141 21.7933 5.55344 17.875 5.03445ZM22.75 9.34375C22.75 10.6864 19.6229 12.1875 15.4375 12.1875C15.0587 12.1875 14.6829 12.1743 14.3122 12.1499C16.5029 11.3516 17.875 10.0547 17.875 8.53125V6.67672C20.9087 7.12867 22.75 8.35555 22.75 9.34375ZM6.5 11.1973V8.78109C7.30821 8.8864 8.12246 8.93865 8.9375 8.9375C9.75254 8.93865 10.5668 8.8864 11.375 8.78109V11.1973C10.568 11.3165 9.75327 11.3759 8.9375 11.375C8.12173 11.3759 7.30701 11.3165 6.5 11.1973ZM16.25 7.10227V8.53125C16.25 9.38336 14.9896 10.2984 13 10.854V8.48047C14.3112 8.16258 15.4213 7.6893 16.25 7.10227ZM8.9375 1.625C13.1229 1.625 16.25 3.12609 16.25 4.46875C16.25 5.81141 13.1229 7.3125 8.9375 7.3125C4.75211 7.3125 1.625 5.81141 1.625 4.46875C1.625 3.12609 4.75211 1.625 8.9375 1.625ZM1.625 8.53125V7.10227C2.45375 7.6893 3.56383 8.16258 4.875 8.48047V10.854C2.88539 10.2984 1.625 9.38336 1.625 8.53125ZM8.125 13.4063V12.9827C8.39211 12.9929 8.66227 13 8.9375 13C9.33156 13 9.71649 12.9868 10.0943 12.9645C10.514 13.1147 10.9415 13.2422 11.375 13.3463V15.729C9.38539 15.1734 8.125 14.2584 8.125 13.4063ZM13 16.0723V13.65C13.808 13.7586 14.6223 13.8129 15.4375 13.8125C16.2525 13.8137 17.0668 13.7614 17.875 13.6561V16.0723C16.2586 16.3092 14.6164 16.3092 13 16.0723ZM19.5 15.729V13.3555C20.8112 13.0376 21.9213 12.5643 22.75 11.9773V13.4063C22.75 14.2584 21.4896 15.1734 19.5 15.729Z" fill="white"/>
</svg>
