<svg width="23" height="23" viewBox="0 0 23 23" fill="none" xmlns="http://www.w3.org/2000/svg">
<path d="M11.375 0C9.12524 0 6.926 0.667132 5.05539 1.91703C3.18478 3.16693 1.72682 4.94347 0.865875 7.02198C0.00492861 9.10048 -0.220334 11.3876 0.218573 13.5942C0.657479 15.8007 1.74084 17.8275 3.33167 19.4183C4.92249 21.0092 6.94932 22.0925 9.15585 22.5314C11.3624 22.9703 13.6495 22.7451 15.728 21.8841C17.8065 21.0232 19.5831 19.5652 20.833 17.6946C22.0829 15.824 22.75 13.6248 22.75 11.375C22.7468 8.35914 21.5474 5.46771 19.4148 3.33518C17.2823 1.20264 14.3909 0.0031848 11.375 0ZM5.47751 18.9766C6.1105 17.9866 6.98251 17.1719 8.01317 16.6076C9.04383 16.0432 10.2 15.7474 11.375 15.7474C12.55 15.7474 13.7062 16.0432 14.7368 16.6076C15.7675 17.1719 16.6395 17.9866 17.2725 18.9766C15.5863 20.288 13.5111 20.9999 11.375 20.9999C9.23889 20.9999 7.1637 20.288 5.47751 18.9766ZM7.875 10.5C7.875 9.80777 8.08028 9.13108 8.46486 8.5555C8.84945 7.97993 9.39607 7.53133 10.0356 7.26642C10.6752 7.00151 11.3789 6.9322 12.0578 7.06725C12.7368 7.2023 13.3604 7.53564 13.8499 8.02513C14.3394 8.51461 14.6727 9.13825 14.8078 9.81718C14.9428 10.4961 14.8735 11.1999 14.6086 11.8394C14.3437 12.4789 13.8951 13.0256 13.3195 13.4101C12.7439 13.7947 12.0672 14 11.375 14C10.4467 14 9.55651 13.6313 8.90013 12.9749C8.24375 12.3185 7.87501 11.4283 7.875 10.5ZM18.5675 17.7636C17.5916 16.3495 16.2194 15.2554 14.6234 14.6191C15.4807 13.9438 16.1063 13.0182 16.4132 11.971C16.72 10.9237 16.6929 9.80688 16.3356 8.77575C15.9783 7.74462 15.3086 6.85047 14.4195 6.21763C13.5304 5.58479 12.4663 5.24473 11.375 5.24473C10.2837 5.24473 9.21956 5.58479 8.33051 6.21763C7.44146 6.85047 6.77171 7.74462 6.4144 8.77575C6.05709 9.80688 6.02997 10.9237 6.33683 11.971C6.64369 13.0182 7.26927 13.9438 8.12657 14.6191C6.53059 15.2554 5.15838 16.3495 4.18251 17.7636C2.94938 16.3769 2.1434 14.6633 1.86162 12.8291C1.57984 10.995 1.83427 9.11848 2.59429 7.42558C3.3543 5.73268 4.58749 4.29557 6.14535 3.28731C7.70322 2.27904 9.51933 1.74261 11.375 1.74261C13.2307 1.74261 15.0468 2.27904 16.6047 3.28731C18.1625 4.29557 19.3957 5.73268 20.1557 7.42558C20.9157 9.11848 21.1702 10.995 20.8884 12.8291C20.6066 14.6633 19.8006 16.3769 18.5675 17.7636Z" fill="white"/>
</svg>
