<svg width="27" height="28" viewBox="0 0 27 28" fill="none" xmlns="http://www.w3.org/2000/svg">
<path d="M16.2597 8.57918C15.232 7.98584 14.0515 7.71057 12.8673 7.78818C11.6832 7.86579 10.5486 8.2928 9.60716 9.01521C8.6657 9.73762 7.9596 10.723 7.57815 11.8467C7.1967 12.9704 7.15704 14.182 7.46417 15.3282C7.77131 16.4745 8.41145 17.5039 9.30365 18.2864C10.1959 19.0688 11.3 19.5691 12.4766 19.724C13.6531 19.8789 14.8492 19.6814 15.9135 19.1566C16.9778 18.6317 17.8625 17.803 18.4559 16.7753C19.2498 15.3968 19.4645 13.7597 19.0528 12.2231C18.6411 10.6865 17.6366 9.37601 16.2597 8.57918ZM11.2597 17.2394C10.5746 16.8439 10.0221 16.254 9.67224 15.5445C9.32233 14.8349 9.19069 14.0376 9.29395 13.2532C9.39721 12.4689 9.73074 11.7327 10.2524 11.1379C10.774 10.5432 11.4603 10.1164 12.2245 9.91163C12.9886 9.70687 13.7963 9.73331 14.5455 9.98761C15.2946 10.2419 15.9515 10.7126 16.4331 11.3403C16.9147 11.9679 17.1994 12.7243 17.2512 13.5137C17.3029 14.3032 17.1194 15.0902 16.7238 15.7753C16.1934 16.6941 15.3197 17.3645 14.295 17.639C13.2703 17.9136 12.1785 17.7699 11.2597 17.2394ZM26.4605 18.396C26.5067 18.2601 26.5232 18.1159 26.5088 17.973C26.4944 17.8302 26.4494 17.6922 26.3769 17.5683L24.2102 13.8636L26.2984 10.2167C26.3704 10.0911 26.4143 9.95139 26.427 9.80722C26.4397 9.66305 26.421 9.51783 26.3721 9.3816C25.7728 7.71446 24.8622 6.17634 23.6889 4.84901C23.5967 4.74409 23.4836 4.65964 23.3568 4.6011C23.23 4.54256 23.0923 4.51123 22.9527 4.50913L18.6441 4.44932L16.4366 0.742755C16.3651 0.622506 16.2692 0.518601 16.155 0.437758C16.0408 0.356915 15.9109 0.300932 15.7737 0.273428C14.0366 -0.0748636 12.2491 -0.0905563 10.5061 0.227182C10.3639 0.25292 10.229 0.309178 10.1106 0.392081C9.99223 0.474984 9.89322 0.582561 9.82041 0.707404L7.70105 4.34075L3.40936 4.31668C3.26581 4.31581 3.12376 4.34585 2.99286 4.40477C2.86196 4.46369 2.74528 4.55009 2.65075 4.65812C1.49779 5.9726 0.615143 7.50139 0.0532517 9.15712C0.00696443 9.293 -0.00952634 9.43725 0.00489983 9.58007C0.0193265 9.72289 0.0643309 9.86094 0.136857 9.98481L2.30355 13.6895L0.215289 17.3365C0.143315 17.462 0.0994561 17.6017 0.0867411 17.7459C0.0740262 17.8901 0.09276 18.0353 0.141646 18.1715C0.740959 19.8387 1.65149 21.3768 2.82483 22.7041C2.917 22.809 3.03013 22.8935 3.15693 22.952C3.28372 23.0106 3.42138 23.0419 3.56102 23.044L7.87535 23.1013L10.0828 26.8079C10.1703 26.9543 10.2943 27.0756 10.4425 27.1599C10.5371 27.2145 10.6399 27.2534 10.747 27.2751C12.4836 27.6239 14.2706 27.6403 16.0133 27.3235C16.1555 27.2977 16.2905 27.2415 16.4089 27.1586C16.5272 27.0757 16.6262 26.9681 16.699 26.8433L18.8184 23.2099L23.1101 23.234C23.2536 23.2349 23.3957 23.2048 23.5266 23.1459C23.6575 23.087 23.7742 23.0006 23.8687 22.8925C25.0193 21.5783 25.9 20.0504 26.4605 18.396ZM22.6548 21.2376L18.5464 21.2111C18.3664 21.2099 18.1894 21.2573 18.0341 21.3484C17.9088 21.4204 17.7765 21.497 17.6469 21.5665C17.4822 21.6534 17.3452 21.7849 17.2517 21.946L15.2199 25.4278C14.0116 25.6007 12.7841 25.588 11.5797 25.3902L9.46362 21.8504C9.37548 21.7039 9.25127 21.5825 9.10285 21.4978L9.08228 21.4859C8.9513 21.4103 8.81923 21.334 8.68824 21.2584C8.53555 21.1651 8.36081 21.114 8.18191 21.1104L4.05363 21.0508C3.27638 20.1083 2.64761 19.0526 2.18905 17.9203L4.18964 14.4277C4.28241 14.2658 4.32803 14.0811 4.32132 13.8946C4.3167 13.7476 4.31317 13.6012 4.31772 13.4509C4.32065 13.2691 4.27453 13.0899 4.18421 12.9321L2.10629 9.38116C2.53119 8.2752 3.12721 7.24287 3.87254 6.32192L7.97742 6.34206C8.15742 6.34324 8.33439 6.29582 8.48968 6.2048C8.61497 6.1328 8.74725 6.05617 8.87687 5.98667C9.0416 5.89976 9.17855 5.76825 9.27206 5.60717L11.3039 2.12538C12.5121 1.95251 13.7397 1.96519 14.9441 2.16299L17.0558 5.70028C17.148 5.85373 17.2797 5.97961 17.4372 6.06479C17.5682 6.14041 17.7002 6.21666 17.8312 6.29229C17.9839 6.3856 18.1586 6.43668 18.3376 6.44028L22.4658 6.49991C23.2431 7.44239 23.8718 8.49804 24.3304 9.63035L22.3298 13.123C22.237 13.2849 22.1914 13.4696 22.1981 13.6561C22.2028 13.8031 22.2063 13.9494 22.2017 14.0998C22.1988 14.2816 22.2449 14.4608 22.3353 14.6186L24.4132 18.1695C23.99 19.2775 23.3951 20.312 22.6505 21.2351L22.6548 21.2376Z" fill="#262626"/>
</svg>
